<?xml version="1.0" encoding="UTF-8"?>
<!DOCTYPE svg PUBLIC "-//W3C//DTD SVG 1.1//EN" "http://www.w3.org/Graphics/SVG/1.1/DTD/svg11.dtd">
<svg version="1.1" xmlns="http://www.w3.org/2000/svg" xmlns:xlink="http://www.w3.org/1999/xlink" x="0" y="0" width="297" height="397" viewBox="0, 0, 297, 397">
  <defs>
    <clipPath id="Clip_1">
      <path d="M294.696,1.095 L294.696,393.928 L2.303,393.928 L2.303,1.095 L294.696,1.095 z"/>
    </clipPath>
  </defs>
  <g id="Layer_1">
    <g clip-path="url(#Clip_1)">
      <path d="M194.567,328.731 C194.19,326.983 193.821,325.238 193.46,323.501 C193.764,323.288 194.073,323.074 194.393,322.858 L195.798,328.269 z M274.137,603.607 L262.264,591.734 C262.264,591.734 262.065,591.888 261.725,592.168 C246.055,574.205 200.885,522.513 181.592,501.412 L181.553,501.369 L181.553,501.368 C181.565,501.334 203.534,433.716 203.803,418.943 L204.565,418.943 C207.891,418.943 209.809,417.8 209.731,415.807 C209.747,415.777 209.76,415.742 209.776,415.712 C209.88,415.512 209.979,415.307 210.071,415.091 C210.132,414.949 210.186,414.798 210.241,414.648 C210.294,414.509 210.344,414.37 210.393,414.225 C210.446,414.064 210.497,413.9 210.544,413.734 C210.587,413.586 210.626,413.434 210.665,413.282 C210.708,413.109 210.753,412.936 210.792,412.757 C210.827,412.59 210.858,412.414 210.889,412.24 C210.95,411.919 211.003,411.588 211.05,411.248 C211.071,411.076 211.096,410.907 211.116,410.732 C211.139,410.523 211.159,410.308 211.178,410.094 C211.194,409.919 211.208,409.742 211.221,409.562 C211.237,409.342 211.251,409.121 211.262,408.895 C211.27,408.71 211.276,408.52 211.282,408.331 C211.296,407.945 211.301,407.552 211.303,407.152 C211.303,406.933 211.305,406.716 211.303,406.494 C211.301,406.247 211.294,405.994 211.286,405.742 C211.28,405.54 211.276,405.339 211.266,405.133 C211.257,404.879 211.245,404.621 211.231,404.361 C211.221,404.15 211.208,403.937 211.194,403.724 C211.178,403.463 211.163,403.203 211.143,402.937 C211.126,402.713 211.106,402.483 211.087,402.256 C211.048,401.787 211.005,401.312 210.956,400.831 C210.932,400.6 210.909,400.371 210.883,400.138 C210.854,399.859 210.821,399.578 210.788,399.295 C210.76,399.06 210.731,398.826 210.702,398.59 C210.667,398.306 210.632,398.022 210.592,397.736 C210.561,397.493 210.526,397.248 210.493,397.002 C210.442,396.636 210.389,396.269 210.335,395.9 C210.278,395.507 210.219,395.116 210.157,394.719 C210.112,394.433 210.065,394.144 210.018,393.855 C209.975,393.591 209.932,393.328 209.887,393.062 C209.841,392.772 209.79,392.482 209.741,392.191 C209.694,391.923 209.647,391.653 209.6,391.383 C209.55,391.095 209.499,390.807 209.446,390.517 C209.391,390.211 209.333,389.903 209.276,389.594 C209.19,389.134 209.104,388.674 209.016,388.212 C208.958,387.908 208.899,387.604 208.841,387.299 C208.784,387.011 208.727,386.723 208.671,386.434 C208.612,386.144 208.555,385.853 208.497,385.561 C208.44,385.279 208.383,384.996 208.325,384.714 C208.26,384.395 208.194,384.078 208.13,383.759 C208.077,383.508 208.026,383.259 207.975,383.008 C207.864,382.474 207.751,381.94 207.637,381.406 C207.587,381.16 207.534,380.915 207.481,380.669 C207.409,380.336 207.339,380.003 207.266,379.67 C207.21,379.4 207.151,379.132 207.092,378.863 C207.022,378.536 206.952,378.21 206.88,377.882 C206.829,377.642 206.776,377.403 206.723,377.164 C206.604,376.619 206.487,376.076 206.368,375.535 C205.448,368.989 202.602,359.655 199.69,349.234 C200.653,348.961 201.606,348.689 202.538,348.422 L202.544,348.42 C208.536,346.695 213.7,345.105 215.446,344.286 C217.567,343.29 217.378,338.236 216.712,333.618 C216.694,332.93 216.62,332.202 216.466,331.422 C216.235,330.437 216.007,329.45 215.776,328.463 C215.391,326.679 215.079,325.484 215.079,325.484 C213.932,320.593 212.776,315.706 211.628,310.9 C212.735,309.734 213.532,308.574 213.848,307.43 C215.958,299.786 203.936,294.489 223.981,286.197 C241.434,278.975 231.733,276.02 232.858,262.257 C233.985,248.497 258.182,256.758 258.182,206.095 C258.182,191.62 262.469,178.453 261.673,165.513 C261.897,165.427 262.016,165.352 262.016,165.352 C262.016,165.352 264.495,115.609 252.76,82.458 C240.26,47.141 207.753,17.14 193.452,23.135 C170.52,6.329 142.797,9.353 117.108,23.247 C91.418,37.14 77.358,53.524 67.117,82.458 C58.492,106.823 57.547,140.15 57.651,156.105 C57.61,161.009 57.791,163.795 57.8,163.794 C57.835,164.802 57.862,167.84 57.862,167.84 C57.862,167.84 57.945,167.839 58.112,167.806 C57.897,180.011 61.696,192.474 61.696,206.095 C61.696,229.058 66.668,239.917 72.209,246.207 L59.64,270.621 L90.203,286.354 L93.23,289.292 C93.164,289.829 93.12,290.37 93.116,290.918 C93.112,291.629 93.166,292.33 93.264,293.024 C91.971,294.439 90.767,295.904 89.656,297.402 C87.317,293.952 84.231,291.752 80.335,292.619 C69.612,295 68.659,309.369 72.185,319.912 C75.711,330.457 82.132,341.294 82.132,341.294 C82.132,341.294 90.12,356.638 98.052,355.165 C98.052,355.165 101.366,354.455 103.248,350.513 C108.197,350.116 112.565,346.456 115.76,342.764 C117.686,342.988 119.696,343.172 121.813,343.3 C118.404,356.081 114.604,367.767 113.512,375.535 C113.393,376.076 113.275,376.619 113.155,377.164 C113.104,377.403 113.051,377.642 112.999,377.882 C112.928,378.21 112.858,378.536 112.786,378.863 C112.729,379.132 112.67,379.4 112.612,379.67 L112.399,380.669 C112.346,380.915 112.293,381.16 112.242,381.406 C112.129,381.94 112.016,382.474 111.904,383.008 C111.853,383.259 111.802,383.508 111.75,383.759 C111.685,384.078 111.619,384.395 111.555,384.714 C111.496,384.996 111.44,385.279 111.383,385.561 C111.324,385.853 111.267,386.144 111.209,386.434 C111.153,386.723 111.095,387.011 111.039,387.299 C110.98,387.604 110.922,387.908 110.863,388.212 C110.776,388.674 110.689,389.134 110.604,389.594 C110.547,389.903 110.488,390.211 110.434,390.517 C110.381,390.807 110.33,391.095 110.279,391.383 C110.233,391.653 110.186,391.923 110.139,392.191 C110.089,392.482 110.039,392.772 109.991,393.062 C109.947,393.328 109.904,393.591 109.862,393.855 C109.815,394.143 109.768,394.432 109.723,394.718 C109.648,395.201 109.574,395.679 109.506,396.154 C109.465,396.435 109.428,396.711 109.389,396.989 C109.354,397.239 109.32,397.49 109.286,397.738 C109.248,398.023 109.213,398.306 109.178,398.59 C109.148,398.826 109.119,399.06 109.092,399.295 C109.059,399.578 109.026,399.859 108.995,400.138 C108.97,400.371 108.947,400.6 108.924,400.831 C108.875,401.312 108.832,401.787 108.792,402.256 C108.774,402.483 108.753,402.713 108.737,402.937 C108.717,403.203 108.701,403.463 108.685,403.724 C108.672,403.937 108.658,404.15 108.648,404.361 C108.634,404.621 108.622,404.879 108.612,405.133 C108.604,405.339 108.599,405.54 108.594,405.742 C108.586,405.994 108.578,406.247 108.576,406.494 C108.573,406.716 108.575,406.933 108.576,407.152 C108.577,407.552 108.584,407.945 108.597,408.331 C108.603,408.52 108.609,408.71 108.617,408.895 C108.629,409.121 108.643,409.342 108.658,409.562 C108.671,409.742 108.686,409.919 108.701,410.094 C108.721,410.308 108.739,410.523 108.764,410.732 C108.783,410.907 108.808,411.076 108.83,411.248 C108.877,411.588 108.93,411.919 108.989,412.24 C109.022,412.414 109.053,412.59 109.088,412.757 C109.127,412.936 109.172,413.109 109.215,413.282 C109.254,413.434 109.293,413.586 109.336,413.734 C109.383,413.9 109.434,414.064 109.487,414.225 C109.534,414.37 109.586,414.509 109.638,414.648 C109.694,414.798 109.748,414.949 109.809,415.091 C109.901,415.307 110,415.512 110.104,415.712 C110.119,415.742 110.133,415.777 110.149,415.807 C110.07,417.8 111.988,418.943 115.314,418.943 L118.911,418.943 C119.357,443.379 142.68,554.336 142.81,554.952 L155.106,638.606 C151.077,639.593 147.112,641.432 144.539,644.785 C142.813,647.035 141.94,648.816 141.549,650.215 L141.545,650.216 C138.551,655.648 140.832,657.905 140.832,657.905 L169.71,657.655 L169.71,637.813 C169.71,637.813 169.626,637.802 169.477,637.786 L165.055,525.993 L165.057,525.995 L165.057,525.994 L195.329,552.965 C217.614,573.112 242.257,594.765 252.067,603.357 C250.153,606.73 248.883,610.56 249.397,614.462 C249.766,617.271 250.407,619.154 251.12,620.419 L251.12,620.42 C252.844,626.378 256.053,626.36 256.053,626.36 L276.296,605.764 z" fill="#797979"/>
      <path d="M194.567,328.731 C194.19,326.983 193.821,325.238 193.46,323.501 C193.764,323.288 194.073,323.074 194.393,322.858 L195.798,328.269 L194.567,328.731 z M274.137,603.607 L262.264,591.734 C262.264,591.734 262.065,591.888 261.725,592.168 C246.055,574.205 200.885,522.513 181.592,501.412 L181.553,501.369 L181.553,501.368 C181.565,501.334 203.534,433.716 203.803,418.943 L204.565,418.943 C207.891,418.943 209.809,417.8 209.731,415.807 C209.747,415.777 209.76,415.742 209.776,415.712 C209.88,415.512 209.979,415.307 210.071,415.091 C210.132,414.949 210.186,414.798 210.241,414.648 C210.294,414.509 210.344,414.37 210.393,414.225 C210.446,414.064 210.497,413.9 210.544,413.734 C210.587,413.586 210.626,413.434 210.665,413.282 C210.708,413.109 210.753,412.936 210.792,412.757 C210.827,412.59 210.858,412.414 210.889,412.24 C210.95,411.919 211.003,411.588 211.05,411.248 C211.071,411.076 211.096,410.907 211.116,410.732 C211.139,410.523 211.159,410.308 211.178,410.094 C211.194,409.919 211.208,409.742 211.221,409.562 C211.237,409.342 211.251,409.121 211.262,408.895 C211.27,408.71 211.276,408.52 211.282,408.331 C211.296,407.945 211.301,407.552 211.303,407.152 C211.303,406.933 211.305,406.716 211.303,406.494 C211.301,406.247 211.294,405.994 211.286,405.742 C211.28,405.54 211.276,405.339 211.266,405.133 C211.257,404.879 211.245,404.621 211.231,404.361 C211.221,404.15 211.208,403.937 211.194,403.724 C211.178,403.463 211.163,403.203 211.143,402.937 C211.126,402.713 211.106,402.483 211.087,402.256 C211.048,401.787 211.005,401.312 210.956,400.831 C210.932,400.6 210.909,400.371 210.883,400.138 C210.854,399.859 210.821,399.578 210.788,399.295 C210.76,399.06 210.731,398.826 210.702,398.59 C210.667,398.306 210.632,398.022 210.592,397.736 C210.561,397.493 210.526,397.248 210.493,397.002 C210.442,396.636 210.389,396.269 210.335,395.9 C210.278,395.507 210.219,395.116 210.157,394.719 C210.112,394.433 210.065,394.144 210.018,393.855 C209.975,393.591 209.932,393.328 209.887,393.062 C209.841,392.772 209.79,392.482 209.741,392.191 C209.694,391.923 209.647,391.653 209.6,391.383 C209.55,391.095 209.499,390.807 209.446,390.517 C209.391,390.211 209.333,389.903 209.276,389.594 C209.19,389.134 209.104,388.674 209.016,388.212 C208.958,387.908 208.899,387.604 208.841,387.299 C208.784,387.011 208.727,386.723 208.671,386.434 C208.612,386.144 208.555,385.853 208.497,385.561 C208.44,385.279 208.383,384.996 208.325,384.714 C208.26,384.395 208.194,384.078 208.13,383.759 C208.077,383.508 208.026,383.259 207.975,383.008 C207.864,382.474 207.751,381.94 207.637,381.406 C207.587,381.16 207.534,380.915 207.481,380.669 C207.409,380.336 207.339,380.003 207.266,379.67 C207.21,379.4 207.151,379.132 207.092,378.863 C207.022,378.536 206.952,378.21 206.88,377.882 C206.829,377.642 206.776,377.403 206.723,377.164 C206.604,376.619 206.487,376.076 206.368,375.535 C205.448,368.989 202.602,359.655 199.69,349.234 C200.653,348.961 201.606,348.689 202.538,348.422 L202.544,348.42 C208.536,346.695 213.7,345.105 215.446,344.286 C217.567,343.29 217.378,338.236 216.712,333.618 C216.694,332.93 216.62,332.202 216.466,331.422 C216.235,330.437 216.007,329.45 215.776,328.463 C215.391,326.679 215.079,325.484 215.079,325.484 C213.932,320.593 212.776,315.706 211.628,310.9 C212.735,309.734 213.532,308.574 213.848,307.43 C215.958,299.786 203.936,294.489 223.981,286.197 C241.434,278.975 231.733,276.02 232.858,262.257 C233.985,248.497 258.182,256.758 258.182,206.095 C258.182,191.62 262.469,178.453 261.673,165.513 C261.897,165.427 262.016,165.352 262.016,165.352 C262.016,165.352 264.495,115.609 252.76,82.458 C240.26,47.141 207.753,17.14 193.452,23.135 C170.52,6.329 142.797,9.353 117.108,23.247 C91.418,37.14 77.358,53.524 67.117,82.458 C58.492,106.823 57.547,140.15 57.651,156.105 C57.61,161.009 57.791,163.795 57.8,163.794 C57.835,164.802 57.862,167.84 57.862,167.84 C57.862,167.84 57.945,167.839 58.112,167.806 C57.897,180.011 61.696,192.474 61.696,206.095 C61.696,229.058 66.668,239.917 72.209,246.207 L59.64,270.621 L90.203,286.354 L93.23,289.292 C93.164,289.829 93.12,290.37 93.116,290.918 C93.112,291.629 93.166,292.33 93.264,293.024 C91.971,294.439 90.767,295.904 89.656,297.402 C87.317,293.952 84.231,291.752 80.335,292.619 C69.612,295 68.659,309.369 72.185,319.912 C75.711,330.457 82.132,341.294 82.132,341.294 C82.132,341.294 90.12,356.638 98.052,355.165 C98.052,355.165 101.366,354.455 103.248,350.513 C108.197,350.116 112.565,346.456 115.76,342.764 C117.686,342.988 119.696,343.172 121.813,343.3 C118.404,356.081 114.604,367.767 113.512,375.535 C113.393,376.076 113.275,376.619 113.155,377.164 C113.104,377.403 113.051,377.642 112.999,377.882 C112.928,378.21 112.858,378.536 112.786,378.863 C112.729,379.132 112.67,379.4 112.612,379.67 L112.399,380.669 C112.346,380.915 112.293,381.16 112.242,381.406 C112.129,381.94 112.016,382.474 111.904,383.008 C111.853,383.259 111.802,383.508 111.75,383.759 C111.685,384.078 111.619,384.395 111.555,384.714 C111.496,384.996 111.44,385.279 111.383,385.561 C111.324,385.853 111.267,386.144 111.209,386.434 C111.153,386.723 111.095,387.011 111.039,387.299 C110.98,387.604 110.922,387.908 110.863,388.212 C110.776,388.674 110.689,389.134 110.604,389.594 C110.547,389.903 110.488,390.211 110.434,390.517 C110.381,390.807 110.33,391.095 110.279,391.383 C110.233,391.653 110.186,391.923 110.139,392.191 C110.089,392.482 110.039,392.772 109.991,393.062 C109.947,393.328 109.904,393.591 109.862,393.855 C109.815,394.143 109.768,394.432 109.723,394.718 C109.648,395.201 109.574,395.679 109.506,396.154 C109.465,396.435 109.428,396.711 109.389,396.989 C109.354,397.239 109.32,397.49 109.286,397.738 C109.248,398.023 109.213,398.306 109.178,398.59 C109.148,398.826 109.119,399.06 109.092,399.295 C109.059,399.578 109.026,399.859 108.995,400.138 C108.97,400.371 108.947,400.6 108.924,400.831 C108.875,401.312 108.832,401.787 108.792,402.256 C108.774,402.483 108.753,402.713 108.737,402.937 C108.717,403.203 108.701,403.463 108.685,403.724 C108.672,403.937 108.658,404.15 108.648,404.361 C108.634,404.621 108.622,404.879 108.612,405.133 C108.604,405.339 108.599,405.54 108.594,405.742 C108.586,405.994 108.578,406.247 108.576,406.494 C108.573,406.716 108.575,406.933 108.576,407.152 C108.577,407.552 108.584,407.945 108.597,408.331 C108.603,408.52 108.609,408.71 108.617,408.895 C108.629,409.121 108.643,409.342 108.658,409.562 C108.671,409.742 108.686,409.919 108.701,410.094 C108.721,410.308 108.739,410.523 108.764,410.732 C108.783,410.907 108.808,411.076 108.83,411.248 C108.877,411.588 108.93,411.919 108.989,412.24 C109.022,412.414 109.053,412.59 109.088,412.757 C109.127,412.936 109.172,413.109 109.215,413.282 C109.254,413.434 109.293,413.586 109.336,413.734 C109.383,413.9 109.434,414.064 109.487,414.225 C109.534,414.37 109.586,414.509 109.638,414.648 C109.694,414.798 109.748,414.949 109.809,415.091 C109.901,415.307 110,415.512 110.104,415.712 C110.119,415.742 110.133,415.777 110.149,415.807 C110.07,417.8 111.988,418.943 115.314,418.943 L118.911,418.943 C119.357,443.379 142.68,554.336 142.81,554.952 L155.106,638.606 C151.077,639.593 147.112,641.432 144.539,644.785 C142.813,647.035 141.94,648.816 141.549,650.215 L141.545,650.216 C138.551,655.648 140.832,657.905 140.832,657.905 L169.71,657.655 L169.71,637.813 C169.71,637.813 169.626,637.802 169.477,637.786 L165.055,525.993 L165.057,525.995 L165.057,525.994 L195.329,552.965 C217.614,573.112 242.257,594.765 252.067,603.357 C250.153,606.73 248.883,610.56 249.397,614.462 C249.766,617.271 250.407,619.154 251.12,620.419 L251.12,620.42 C252.844,626.378 256.053,626.36 256.053,626.36 L276.296,605.764 L274.137,603.607 z" fill-opacity="0" stroke="#797979" stroke-width="8" stroke-linecap="round" stroke-linejoin="round"/>
      <path d="M258.182,206.095 C258.182,190.218 263.362,175.915 261.307,161.758 C257.839,144.73 245.76,128.516 237.192,116.868 C222.675,95.575 199.544,83.733 160.44,83.534 L160.44,83.524 C160.27,83.524 160.108,83.528 159.94,83.529 C159.772,83.528 159.608,83.524 159.44,83.524 L159.44,83.534 C120.336,83.733 97.204,95.575 82.688,116.868 C74.119,128.516 62.041,144.73 58.572,161.758 C56.518,175.915 61.696,190.218 61.696,206.095 C61.696,256.758 85.895,248.497 87.022,262.257 C88.147,276.02 78.445,278.975 95.899,286.197 C115.944,294.489 103.921,299.786 106.031,307.43 C108.328,315.745 135.406,324.924 131.217,330.723 C127.94,335.259 150.991,342.063 159.44,342.471 L159.44,342.492 C159.587,342.496 159.764,342.492 159.94,342.489 C160.114,342.492 160.292,342.496 160.44,342.492 L160.44,342.471 C168.887,342.063 191.94,335.259 188.663,330.723 C184.473,324.924 211.551,315.745 213.848,307.43 C215.958,299.786 203.936,294.489 223.981,286.197 C241.434,278.975 231.733,276.02 232.858,262.257 C233.985,248.497 258.182,256.758 258.182,206.095" fill="#AE9684"/>
      <path d="M258.182,206.095 C258.182,190.218 263.362,175.915 261.307,161.758 C257.839,144.73 245.76,128.516 237.192,116.868 C222.675,95.575 199.544,83.733 160.44,83.534 L160.44,83.524 C160.27,83.524 160.108,83.528 159.94,83.529 C159.772,83.528 159.608,83.524 159.44,83.524 L159.44,83.534 C120.336,83.733 97.204,95.575 82.688,116.868 C74.119,128.516 62.041,144.73 58.572,161.758 C56.518,175.915 61.696,190.218 61.696,206.095 C61.696,256.758 85.895,248.497 87.022,262.257 C88.147,276.02 78.445,278.975 95.899,286.197 C115.944,294.489 103.921,299.786 106.031,307.43 C108.328,315.745 135.406,324.924 131.217,330.723 C127.94,335.259 150.991,342.063 159.44,342.471 L159.44,342.492 C159.587,342.496 159.764,342.492 159.94,342.489 C160.114,342.492 160.292,342.496 160.44,342.492 L160.44,342.471 C168.887,342.063 191.94,335.259 188.663,330.723 C184.473,324.924 211.551,315.745 213.848,307.43 C215.958,299.786 203.936,294.489 223.981,286.197 C241.434,278.975 231.733,276.02 232.858,262.257 C233.985,248.497 258.182,256.758 258.182,206.095 z" fill-opacity="0" stroke="#797979" stroke-width="4" stroke-linecap="round" stroke-linejoin="round"/>
      <path d="M194.811,250.92 C190.935,248.818 180.664,248.028 172.274,247.741 L167.831,245.172 L166.469,230.792 L159.979,226.572 L153.489,230.792 L152.128,245.172 L147.683,247.741 C139.296,248.028 129.031,248.819 125.157,250.92 C124.815,251.106 123.737,253.406 123.737,253.406 C123.672,260.113 134.867,284.607 134.867,284.607 L185.102,284.607 C185.102,284.607 196.296,260.113 196.233,253.406 C196.233,253.406 195.155,251.106 194.811,250.92" fill="#FFEFD9"/>
      <path d="M194.811,250.92 C190.935,248.818 180.664,248.028 172.274,247.741 L167.831,245.172 L166.469,230.792 L159.979,226.572 L153.489,230.792 L152.128,245.172 L147.683,247.741 C139.296,248.028 129.031,248.819 125.157,250.92 C124.815,251.106 123.737,253.406 123.737,253.406 C123.672,260.113 134.867,284.607 134.867,284.607 L185.102,284.607 C185.102,284.607 196.296,260.113 196.233,253.406 C196.233,253.406 195.155,251.106 194.811,250.92 z" fill-opacity="0" stroke="#797979" stroke-width="4" stroke-linecap="round" stroke-linejoin="round"/>
      <path d="M194.764,250.92 C190.889,248.818 180.617,248.028 172.227,247.741 L167.784,245.172 L166.423,230.792 L159.932,226.572 L153.442,230.792 L152.081,245.172 L147.637,247.741 C139.25,248.028 128.986,248.819 125.112,250.92 C124.769,251.106 123.692,253.406 123.692,253.406 C123.626,260.113 134.821,284.607 134.821,284.607 L185.055,284.607 C185.055,284.607 196.251,260.113 196.186,253.406 C196.186,253.406 195.108,251.106 194.764,250.92" fill="#FFEFD9"/>
      <path d="M194.764,250.92 C190.889,248.818 180.617,248.028 172.227,247.741 L167.784,245.172 L166.423,230.792 L159.932,226.572 L153.442,230.792 L152.081,245.172 L147.637,247.741 C139.25,248.028 128.986,248.819 125.112,250.92 C124.769,251.106 123.692,253.406 123.692,253.406 C123.626,260.113 134.821,284.607 134.821,284.607 L185.055,284.607 C185.055,284.607 196.251,260.113 196.186,253.406 C196.186,253.406 195.108,251.106 194.764,250.92 z" fill-opacity="0" stroke="#797979" stroke-width="4" stroke-linecap="round" stroke-linejoin="round"/>
      <path d="M182.37,276.538 L197.499,334.824 C197.499,334.824 202.692,342.482 208.85,341.873 C213.764,341.386 217.794,338.138 216.466,331.422 C207.516,292.973 197.51,252.444 194.764,250.92 L193.258,250.273" fill="#FFEFD9"/>
      <path d="M182.37,276.538 L197.499,334.824 C197.499,334.824 202.692,342.482 208.85,341.873 C213.764,341.386 217.794,338.138 216.466,331.422 C207.516,292.973 197.51,252.444 194.764,250.92 L193.258,250.273" fill-opacity="0" stroke="#797979" stroke-width="4" stroke-linecap="round" stroke-linejoin="round"/>
      <path d="M137.495,276.538 L121.268,334.824 C121.268,334.824 112.248,352.112 100.806,350.446 C95.572,349.684 99.495,338.138 100.921,331.422 C110.522,292.973 121.254,252.444 124.199,250.92 L125.815,250.273" fill="#FFEFD9"/>
      <path d="M137.495,276.538 L121.268,334.824 C121.268,334.824 112.248,352.112 100.806,350.446 C95.572,349.684 99.495,338.138 100.921,331.422 C110.522,292.973 121.254,252.444 124.199,250.92 L125.815,250.273" fill-opacity="0" stroke="#797979" stroke-width="4" stroke-linecap="round" stroke-linejoin="round"/>
      <path d="M159.94,300.251 C170.106,300.261 180.286,276.165 179.985,268.748 C179.985,268.748 174.065,274.618 159.94,274.618 C145.814,274.618 139.983,268.748 139.983,268.748 C139.682,276.143 149.803,300.24 159.94,300.251" fill="#FFFFFF"/>
      <path d="M159.94,300.251 C170.106,300.261 180.286,276.165 179.985,268.748 C179.985,268.748 174.065,274.618 159.94,274.618 C145.814,274.618 139.983,268.748 139.983,268.748 C139.682,276.143 149.803,300.24 159.94,300.251 z" fill-opacity="0" stroke="#797979" stroke-width="4" stroke-linecap="round" stroke-linejoin="round"/>
      <path d="M133.882,309.623 L186.087,309.623 L187.944,276.821 L190.526,248.64 L184.667,248.664 L159.985,297.37 L135.301,248.664 L129.443,248.64 L132.026,276.821 z" fill="#E2F1C9"/>
      <path d="M133.882,309.623 L186.087,309.623 L187.944,276.821 L190.526,248.64 L184.667,248.664 L159.985,297.37 L135.301,248.664 L129.443,248.64 L132.026,276.821 L133.882,309.623 z" fill-opacity="0" stroke="#797979" stroke-width="4" stroke-linecap="round" stroke-linejoin="round"/>
      <path d="M132.188,248.64 C132.188,248.64 118.067,245.992 115.19,250.92 C108.066,263.123 107.963,293.893 107.963,293.893 L131.651,302.123 L137.604,279.656" fill="#E2F1C9"/>
      <path d="M132.188,248.64 C132.188,248.64 118.067,245.992 115.19,250.92 C108.066,263.123 107.963,293.893 107.963,293.893 L131.651,302.123 L137.604,279.656" fill-opacity="0" stroke="#797979" stroke-width="4" stroke-linecap="round" stroke-linejoin="round"/>
      <path d="M187.692,248.64 C187.692,248.64 201.813,245.992 204.69,250.92 C211.813,263.123 211.917,293.893 211.917,293.893 L188.231,302.123 L182.276,279.656" fill="#E2F1C9"/>
      <path d="M187.692,248.64 C187.692,248.64 201.813,245.992 204.69,250.92 C211.813,263.123 211.917,293.893 211.917,293.893 L188.231,302.123 L182.276,279.656" fill-opacity="0" stroke="#797979" stroke-width="4" stroke-linecap="round" stroke-linejoin="round"/>
      <path d="M120.569,377.361 C120.569,377.361 118.465,394.439 118.911,418.943 C119.358,443.447 142.813,554.966 142.813,554.966 L166.057,554.966 L159.94,443.382 L159.94,376.623" fill="#797979"/>
      <path d="M120.569,377.361 C120.569,377.361 118.465,394.439 118.911,418.943 C119.358,443.447 142.813,554.966 142.813,554.966 L166.057,554.966 L159.94,443.382 L159.94,376.623" fill-opacity="0" stroke="#797979" stroke-width="4" stroke-linecap="round" stroke-linejoin="round"/>
      <path d="M199.311,377.361 C199.311,377.361 204.249,394.439 203.803,418.943 C203.534,433.72 181.553,501.369 181.553,501.369 L214.682,538.505 L195.333,552.968 L150.05,512.623 L159.94,443.382 L159.94,376.623" fill="#797979"/>
      <path d="M199.311,377.361 C199.311,377.361 204.249,394.439 203.803,418.943 C203.534,433.72 181.553,501.369 181.553,501.369 L214.682,538.505 L195.333,552.968 L150.05,512.623 L159.94,443.382 L159.94,376.623" fill-opacity="0" stroke="#797979" stroke-width="4" stroke-linecap="round" stroke-linejoin="round"/>
      <path d="M206.368,375.535 C204.954,365.478 198.997,348.858 195.233,331.79 C189.235,304.597 185.02,276.821 185.02,276.821 L174.38,276.821 L159.94,303.122 L145.5,276.821 L134.86,276.821 C134.86,276.821 130.645,304.597 124.647,331.79 C120.883,348.858 114.926,365.478 113.512,375.535 C110.073,391.209 106.401,408.791 110.149,415.806 C110.07,417.8 111.987,418.943 115.314,418.943 L204.565,418.943 C207.891,418.943 209.809,417.8 209.731,415.806 C213.479,408.791 209.805,391.209 206.368,375.535" fill="#E2F1C9"/>
      <path d="M134.86,276.821 C134.86,276.821 130.645,304.597 124.647,331.79 C120.883,348.858 114.926,365.478 113.512,375.535 C109.096,395.662 104.29,418.943 115.314,418.943 L129.814,418.943 L195.563,418.943 L204.565,418.943 C215.589,418.943 210.784,395.662 206.368,375.535 C204.954,365.478 198.997,348.858 195.233,331.79 C189.235,304.597 185.02,276.821 185.02,276.821" fill-opacity="0" stroke="#797979" stroke-width="4" stroke-linecap="round" stroke-linejoin="round"/>
      <path d="M142.654,248.097 C142.654,248.097 134.462,344.498 158.796,352.873" fill-opacity="0" stroke="#797979" stroke-width="4" stroke-linecap="round" stroke-linejoin="round"/>
      <path d="M151.477,336.755 C151.477,339.085 149.588,340.973 147.258,340.973 C144.928,340.973 143.039,339.085 143.039,336.755 C143.039,334.424 144.928,332.536 147.258,332.536 C149.588,332.536 151.477,334.424 151.477,336.755" fill="#FFFFFF"/>
      <path d="M151.477,336.755 C151.477,339.085 149.588,340.973 147.258,340.973 C144.928,340.973 143.039,339.085 143.039,336.755 C143.039,334.424 144.928,332.536 147.258,332.536 C149.588,332.536 151.477,334.424 151.477,336.755 z" fill-opacity="0" stroke="#797979" stroke-width="4" stroke-linecap="round" stroke-linejoin="round"/>
      <path d="M146.375,315.017 C146.375,317.347 144.487,319.236 142.157,319.236 C139.826,319.236 137.939,317.347 137.939,315.017 C137.939,312.687 139.826,310.799 142.157,310.799 C144.487,310.799 146.375,312.687 146.375,315.017" fill="#FFFFFF"/>
      <path d="M146.375,315.017 C146.375,317.347 144.487,319.236 142.157,319.236 C139.826,319.236 137.939,317.347 137.939,315.017 C137.939,312.687 139.826,310.799 142.157,310.799 C144.487,310.799 146.375,312.687 146.375,315.017 z" fill-opacity="0" stroke="#797979" stroke-width="4" stroke-linecap="round" stroke-linejoin="round"/>
      <path d="M145.594,293.672 C145.594,296.002 143.705,297.89 141.375,297.89 C139.045,297.89 137.156,296.002 137.156,293.672 C137.156,291.341 139.045,289.453 141.375,289.453 C143.705,289.453 145.594,291.341 145.594,293.672" fill="#FFFFFF"/>
      <path d="M145.594,293.672 C145.594,296.002 143.705,297.89 141.375,297.89 C139.045,297.89 137.156,296.002 137.156,293.672 C137.156,291.341 139.045,289.453 141.375,289.453 C143.705,289.453 145.594,291.341 145.594,293.672 z" fill-opacity="0" stroke="#797979" stroke-width="4" stroke-linecap="round" stroke-linejoin="round"/>
      <path d="M177.225,248.097 C177.225,248.097 185.417,344.498 161.085,352.873" fill-opacity="0" stroke="#797979" stroke-width="4" stroke-linecap="round" stroke-linejoin="round"/>
      <path d="M167.817,336.755 C167.817,339.085 169.706,340.973 172.036,340.973 C174.366,340.973 176.255,339.085 176.255,336.755 C176.255,334.424 174.366,332.536 172.036,332.536 C169.706,332.536 167.817,334.424 167.817,336.755" fill="#FFFFFF"/>
      <path d="M167.817,336.755 C167.817,339.085 169.706,340.973 172.036,340.973 C174.366,340.973 176.255,339.085 176.255,336.755 C176.255,334.424 174.366,332.536 172.036,332.536 C169.706,332.536 167.817,334.424 167.817,336.755 z" fill-opacity="0" stroke="#797979" stroke-width="4" stroke-linecap="round" stroke-linejoin="round"/>
      <path d="M172.919,315.017 C172.919,317.347 174.805,319.236 177.135,319.236 C179.467,319.236 181.354,317.347 181.354,315.017 C181.354,312.687 179.467,310.799 177.135,310.799 C174.805,310.799 172.919,312.687 172.919,315.017" fill="#FFFFFF"/>
      <path d="M172.919,315.017 C172.919,317.347 174.805,319.236 177.135,319.236 C179.467,319.236 181.354,317.347 181.354,315.017 C181.354,312.687 179.467,310.799 177.135,310.799 C174.805,310.799 172.919,312.687 172.919,315.017 z" fill-opacity="0" stroke="#797979" stroke-width="4" stroke-linecap="round" stroke-linejoin="round"/>
      <path d="M173.7,293.672 C173.7,296.002 175.589,297.89 177.919,297.89 C180.249,297.89 182.137,296.002 182.137,293.672 C182.137,291.341 180.249,289.453 177.919,289.453 C175.589,289.453 173.7,291.341 173.7,293.672" fill="#FFFFFF"/>
      <path d="M173.7,293.672 C173.7,296.002 175.589,297.89 177.919,297.89 C180.249,297.89 182.137,296.002 182.137,293.672 C182.137,291.341 180.249,289.453 177.919,289.453 C175.589,289.453 173.7,291.341 173.7,293.672 z" fill-opacity="0" stroke="#797979" stroke-width="4" stroke-linecap="round" stroke-linejoin="round"/>
      <path d="M163.866,352.306 C163.866,354.636 161.977,356.525 159.647,356.525 C157.317,356.525 155.428,354.636 155.428,352.306 C155.428,349.976 157.317,348.088 159.647,348.088 C161.977,348.088 163.866,349.976 163.866,352.306" fill="#FFFFFF"/>
      <path d="M163.866,352.306 C163.866,354.636 161.977,356.525 159.647,356.525 C157.317,356.525 155.428,354.636 155.428,352.306 C155.428,349.976 157.317,348.088 159.647,348.088 C161.977,348.088 163.866,349.976 163.866,352.306 z" fill-opacity="0" stroke="#797979" stroke-width="4" stroke-linecap="round" stroke-linejoin="round"/>
      <path d="M89.037,144.83 C89.037,144.83 60.895,139.021 60.895,164.466 C60.895,179.432 70.584,186.228 90.502,186.513" fill="#FFEFD9"/>
      <path d="M89.037,144.83 C89.037,144.83 60.895,139.021 60.895,164.466 C60.895,179.432 70.584,186.228 90.502,186.513" fill-opacity="0" stroke="#797979" stroke-width="4" stroke-linecap="round" stroke-linejoin="round"/>
      <path d="M71.619,165.842 C71.619,165.842 75.309,164.138 78.824,164.16" fill="#FFEFD9"/>
      <path d="M71.619,165.842 C71.619,165.842 75.309,164.138 78.824,164.16" fill-opacity="0" stroke="#797979" stroke-width="4" stroke-linecap="round" stroke-linejoin="round"/>
      <path d="M231.257,144.83 C231.257,144.83 259.399,139.021 259.399,164.466 C259.399,179.432 249.712,186.228 229.794,186.513" fill="#FFEFD9"/>
      <path d="M231.257,144.83 C231.257,144.83 259.399,139.021 259.399,164.466 C259.399,179.432 249.712,186.228 229.794,186.513" fill-opacity="0" stroke="#797979" stroke-width="4" stroke-linecap="round" stroke-linejoin="round"/>
      <path d="M248.676,165.842 C248.676,165.842 244.987,164.138 241.469,164.16" fill="#FFEFD9"/>
      <path d="M248.676,165.842 C248.676,165.842 244.987,164.138 241.469,164.16" fill-opacity="0" stroke="#797979" stroke-width="4" stroke-linecap="round" stroke-linejoin="round"/>
      <path d="M160.147,240.644 C39.387,240.644 51.07,43.697 160.147,43.697 C269.223,43.697 280.907,240.644 160.147,240.644" fill="#FFEFD9"/>
      <path d="M160.147,240.644 C39.387,240.644 51.07,43.697 160.147,43.697 C269.223,43.697 280.907,240.644 160.147,240.644 z" fill-opacity="0" stroke="#797979" stroke-width="4" stroke-linecap="round" stroke-linejoin="round"/>
      <path d="M252.76,82.458 C240.26,47.141 207.753,17.14 193.452,23.135 C170.52,6.329 142.797,9.353 117.108,23.247 C91.418,37.14 77.358,53.524 67.117,82.458 C58.492,106.823 57.547,140.15 57.651,156.105 C57.61,161.009 57.791,163.795 57.8,163.794 C57.835,164.802 57.862,167.84 57.862,167.84 C57.862,167.84 69.928,167.813 104.067,109.172 C139.014,49.141 187.782,52.64 187.782,52.64 C187.782,52.64 221.473,66.38 235.575,119.811 C249.676,173.243 262.016,165.352 262.016,165.352 C262.016,165.352 264.495,115.609 252.76,82.458" fill="#AE9684"/>
      <path d="M252.76,82.458 C240.26,47.141 207.753,17.14 193.452,23.135 C170.52,6.329 142.797,9.353 117.108,23.247 C91.418,37.14 77.358,53.524 67.117,82.458 C58.492,106.823 57.547,140.15 57.651,156.105 C57.61,161.009 57.791,163.795 57.8,163.794 C57.835,164.802 57.862,167.84 57.862,167.84 C57.862,167.84 69.928,167.813 104.067,109.172 C139.014,49.141 187.782,52.64 187.782,52.64 C187.782,52.64 221.473,66.38 235.575,119.811 C249.676,173.243 262.016,165.352 262.016,165.352 C262.016,165.352 264.495,115.609 252.76,82.458 z" fill-opacity="0" stroke="#797979" stroke-width="4" stroke-linecap="round" stroke-linejoin="round"/>
      <path d="M156.229,181.876 C156.229,181.876 154.895,187.876 160.147,187.543" fill-opacity="0" stroke="#797979" stroke-width="4" stroke-linecap="round" stroke-linejoin="round"/>
      <path d="M160.147,203.254 C144.577,203.254 140.594,197.217 140.594,197.217 C143.545,209.551 153.399,221.755 160.147,221.755 C166.895,221.755 176.749,209.551 179.7,197.217 C179.7,197.217 175.716,203.254 160.147,203.254" fill="#F4ACA6"/>
      <path d="M160.147,203.254 C144.577,203.254 140.594,197.217 140.594,197.217 C143.545,209.551 153.399,221.755 160.147,221.755 C166.895,221.755 176.749,209.551 179.7,197.217 C179.7,197.217 175.716,203.254 160.147,203.254 z" fill-opacity="0" stroke="#797979" stroke-width="4" stroke-linecap="round" stroke-linejoin="round"/>
      <path d="M124.236,167.064 C124.236,168.906 120.056,170.398 114.902,170.398 C109.747,170.398 105.568,168.906 105.568,167.064 C105.568,165.222 109.747,163.73 114.902,163.73 C120.056,163.73 124.236,165.222 124.236,167.064" fill="#FFD9D9"/>
      <path d="M196.057,167.064 C196.057,168.906 200.237,170.398 205.391,170.398 C210.546,170.398 214.725,168.906 214.725,167.064 C214.725,165.222 210.546,163.73 205.391,163.73 C200.237,163.73 196.057,165.222 196.057,167.064" fill="#FFD9D9"/>
      <path d="M187.428,103.955 C187.428,103.955 190.516,98.955 197.729,98.955 C202.917,98.955 208.229,105.455 208.229,105.455" fill-opacity="0" stroke="#797979" stroke-width="4" stroke-linecap="round" stroke-linejoin="round"/>
      <path d="M132.865,103.955 C132.865,103.955 129.778,98.955 122.565,98.955 C117.377,98.955 112.065,105.455 112.065,105.455" fill-opacity="0" stroke="#797979" stroke-width="4" stroke-linecap="round" stroke-linejoin="round"/>
      <path d="M114.815,153.756 C114.815,153.756 118.235,145.469 123.903,145.469 C129.57,145.469 132.315,154.623 132.315,154.623" fill-opacity="0" stroke="#797979" stroke-width="4" stroke-linecap="round" stroke-linejoin="round"/>
      <path d="M205.065,153.756 C205.065,153.756 201.645,145.469 195.977,145.469 C190.309,145.469 187.565,154.623 187.565,154.623" fill-opacity="0" stroke="#797979" stroke-width="4" stroke-linecap="round" stroke-linejoin="round"/>
      <path d="M215.079,325.484 C215.079,325.484 219.518,342.373 215.446,344.286 C210.423,346.644 177.102,355.377 177.102,355.377 L171.317,337.457 L199.518,326.873" fill="#FFEFD9"/>
      <path d="M215.079,325.484 C215.079,325.484 219.518,342.373 215.446,344.286 C210.423,346.644 177.102,355.377 177.102,355.377 L171.317,337.457 L199.518,326.873" fill-opacity="0" stroke="#797979" stroke-width="4" stroke-linecap="round" stroke-linejoin="round"/>
      <path d="M134.298,212.775 L95.116,288.883 L59.64,270.621 L98.821,194.513 z" fill="#E0DCC6"/>
      <path d="M134.298,212.775 L95.116,288.883 L59.64,270.621 L98.821,194.513 L134.298,212.775 z" fill-opacity="0" stroke="#797979" stroke-width="4" stroke-linecap="round" stroke-linejoin="round"/>
      <path d="M102.62,230.721 C109.642,234.34 112.806,242.18 109.685,248.242 C106.565,254.306 98.343,256.291 91.318,252.674 C84.292,249.058 81.13,241.216 84.251,235.15 C87.373,229.087 95.597,227.103 102.62,230.721" fill="#FFFFFF"/>
      <path d="M83.879,254.202 C89.154,256.919 91.407,263.05 88.911,267.902 C86.414,272.748 80.114,274.48 74.836,271.764 C69.56,269.046 67.306,262.911 69.802,258.062 C72.3,253.216 78.603,251.485 83.879,254.202" fill="#B0AA8E"/>
      <path d="M84.701,271.115 C84.701,271.115 86.59,278.117 96.214,280.882 L103.915,265.922 C103.915,265.922 95.755,261.574 88.983,262.138 z" fill="#B0AA8E"/>
      <path d="M102.21,200.674 C103.235,201.199 102.442,204.781 100.443,208.674 C98.436,212.563 95.982,215.292 94.958,214.758 C93.929,214.235 94.721,210.652 96.721,206.758 C98.726,202.871 101.181,200.145 102.21,200.674" fill="#B0AA8E"/>
      <path d="M158.95,233.789 L99.329,295.212 L70.698,267.424 L130.32,205.997 z" fill="#E0DCC6"/>
      <path d="M158.95,233.789 L99.329,295.212 L70.698,267.424 L130.32,205.997 L158.95,233.789 z" fill-opacity="0" stroke="#797979" stroke-width="4" stroke-linecap="round" stroke-linejoin="round"/>
      <path d="M123.422,241.745 C129.089,247.251 129.835,255.673 125.087,260.565 C120.337,265.458 111.896,264.966 106.224,259.463 C100.556,253.961 99.808,245.536 104.561,240.642 C109.308,235.749 117.755,236.241 123.422,241.745" fill="#FFFFFF"/>
      <path d="M98.664,258.763 C102.923,262.896 103.292,269.418 99.493,273.334 C95.696,277.242 89.163,277.068 84.904,272.937 C80.648,268.799 80.275,262.276 84.073,258.361 C87.872,254.451 94.404,254.626 98.664,258.763" fill="#B0AA8E"/>
      <path d="M94.531,275.183 C94.531,275.183 94.303,282.431 102.71,287.877 L114.427,275.801 C114.427,275.801 107.884,269.267 101.237,267.84 z" fill="#B0AA8E"/>
      <path d="M131.767,212.877 C132.595,213.679 130.794,216.877 127.751,220.019 C124.7,223.157 121.56,225.052 120.736,224.246 C119.902,223.445 121.7,220.247 124.749,217.102 C127.798,213.966 130.938,212.073 131.767,212.877" fill="#B0AA8E"/>
      <path d="M171.253,244.732 L109.261,303.761 L81.745,274.869 L143.737,215.836 z" fill="#E0DCC6"/>
      <path d="M171.253,244.732 L109.261,303.761 L81.745,274.869 L143.737,215.836 L171.253,244.732 z" fill-opacity="0" stroke="#797979" stroke-width="4" stroke-linecap="round" stroke-linejoin="round"/>
      <path d="M135.437,251.285 C140.886,257.007 141.299,265.452 136.362,270.153 C131.424,274.858 123.005,274.035 117.557,268.313 C112.109,262.591 111.694,254.144 116.634,249.44 C121.573,244.738 129.991,245.562 135.437,251.285" fill="#FFFFFF"/>
      <path d="M110.03,267.315 C114.12,271.611 114.237,278.143 110.286,281.907 C106.337,285.664 99.818,285.231 95.723,280.937 C91.632,276.635 91.517,270.1 95.466,266.34 C99.416,262.582 105.937,263.014 110.03,267.315" fill="#B0AA8E"/>
      <path d="M105.256,283.56 C105.256,283.56 104.739,290.793 112.927,296.564 L125.111,284.96 C125.111,284.96 118.829,278.174 112.243,276.486 z" fill="#B0AA8E"/>
      <path d="M144.909,222.768 C145.706,223.601 143.783,226.725 140.616,229.746 C137.445,232.76 134.233,234.531 133.442,233.692 C132.639,232.858 134.564,229.734 137.732,226.713 C140.902,223.699 144.114,221.929 144.909,222.768" fill="#B0AA8E"/>
      <path d="M181.95,265.525 L110.03,311.947 L88.39,278.425 L160.309,232 z" fill="#E0DCC6"/>
      <path d="M181.95,265.525 L110.03,311.947 L88.39,278.425 L160.309,232 L181.95,265.525 z" fill-opacity="0" stroke="#797979" stroke-width="4" stroke-linecap="round" stroke-linejoin="round"/>
      <path d="M145.54,265.278 C149.825,271.918 148.654,280.292 142.926,283.989 C137.196,287.688 129.079,285.308 124.796,278.669 C120.51,272.031 121.68,263.655 127.412,259.957 C133.143,256.258 141.259,258.638 145.54,265.278" fill="#FFFFFF"/>
      <path d="M117.589,276.286 C120.804,281.269 119.699,287.706 115.116,290.67 C110.536,293.621 104.21,291.982 100.988,286.995 C97.775,282.008 98.879,275.566 103.463,272.608 C108.044,269.654 114.369,271.295 117.589,276.286" fill="#B0AA8E"/>
      <path d="M109.864,291.352 C109.864,291.352 108.01,298.361 114.974,305.558 L129.109,296.435 C129.109,296.435 124.206,288.594 118.051,285.707 z" fill="#B0AA8E"/>
      <path d="M160.171,239.031 C160.798,239.998 158.323,242.707 154.647,245.083 C150.971,247.453 147.484,248.595 146.864,247.623 C146.23,246.654 148.704,243.943 152.38,241.566 C156.059,239.197 159.544,238.059 160.171,239.031" fill="#B0AA8E"/>
      <path d="M184.542,286.6 L104.723,317.522 L90.306,280.315 L170.13,249.391 z" fill="#E0DCC6"/>
      <path d="M184.542,286.6 L104.723,317.522 L90.306,280.315 L170.13,249.391 L184.542,286.6 z" fill-opacity="0" stroke="#797979" stroke-width="4" stroke-linecap="round" stroke-linejoin="round"/>
      <path d="M148.937,278.997 C151.788,286.365 148.948,294.33 142.593,296.793 C136.234,299.255 128.766,295.285 125.912,287.918 C123.058,280.549 125.897,272.583 132.257,270.118 C138.614,267.656 146.085,271.629 148.937,278.997" fill="#FFFFFF"/>
      <path d="M119.336,284.123 C121.48,289.655 119.092,295.736 114.007,297.71 C108.923,299.675 103.058,296.789 100.915,291.257 C98.773,285.722 101.158,279.638 106.245,277.666 C111.329,275.699 117.192,278.588 119.336,284.123" fill="#B0AA8E"/>
      <path d="M108.724,297.317 C108.724,297.317 105.489,303.808 110.857,312.265 L126.544,306.185 C126.544,306.185 123.327,297.517 117.88,293.445 z" fill="#B0AA8E"/>
      <path d="M168.571,256.246 C168.991,257.324 166.02,259.476 161.938,261.059 C157.856,262.638 154.212,263.05 153.801,261.97 C153.376,260.894 156.346,258.743 160.428,257.156 C164.508,255.58 168.153,255.172 168.571,256.246" fill="#B0AA8E"/>
      <path d="M129.585,264.786 C129.562,267.652 127.178,269.964 124.264,269.943 C121.347,269.922 119.009,267.574 119.03,264.706 C119.055,261.833 121.423,259.52 124.338,259.541 C127.254,259.561 129.605,261.911 129.585,264.786" fill="#F5F5F5"/>
      <path d="M129.585,264.786 C129.562,267.652 127.178,269.964 124.264,269.943 C121.347,269.922 119.009,267.574 119.03,264.706 C119.055,261.833 121.423,259.52 124.338,259.541 C127.254,259.561 129.605,261.911 129.585,264.786 z" fill-opacity="0" stroke="#797979" stroke-width="4" stroke-linecap="round" stroke-linejoin="round"/>
      <path d="M140.7,264.868 C140.681,267.734 138.304,270.046 135.392,270.024 C132.472,270.003 130.132,267.656 130.153,264.789 C130.175,261.914 132.548,259.601 135.468,259.622 C138.38,259.645 140.722,261.991 140.7,264.868" fill="#F5F5F5"/>
      <path d="M140.7,264.868 C140.681,267.734 138.304,270.046 135.392,270.024 C132.472,270.003 130.132,267.656 130.153,264.789 C130.175,261.914 132.548,259.601 135.468,259.622 C138.38,259.645 140.722,261.991 140.7,264.868 z" fill-opacity="0" stroke="#797979" stroke-width="4" stroke-linecap="round" stroke-linejoin="round"/>
      <path d="M166.221,291.455 C166.126,303.946 149.692,313.942 129.503,313.795 C109.32,313.646 93.024,303.409 93.116,290.918 C93.208,278.426 109.653,268.43 129.837,268.581 C150.022,268.728 166.311,278.964 166.221,291.455" fill="#F5F5F5"/>
      <path d="M166.221,291.455 C166.126,303.946 149.692,313.942 129.503,313.795 C109.32,313.646 93.024,303.409 93.116,290.918 C93.208,278.426 109.653,268.43 129.837,268.581 C150.022,268.728 166.311,278.964 166.221,291.455 z" fill-opacity="0" stroke="#797979" stroke-width="4" stroke-linecap="round" stroke-linejoin="round"/>
      <path d="M129.79,274.978 C168.415,275.261 213.618,344.169 129.283,343.549 C44.952,342.927 91.157,274.692 129.79,274.978" fill="#FFA3A0"/>
      <path d="M129.79,274.978 C168.415,275.261 213.618,344.169 129.283,343.549 C44.952,342.927 91.157,274.692 129.79,274.978 z" fill-opacity="0" stroke="#797979" stroke-width="4" stroke-linecap="round" stroke-linejoin="round"/>
      <path d="M118.473,277.058 L110.876,288.652" fill="#FFEFD9"/>
      <path d="M118.473,277.058 L110.876,288.652" fill-opacity="0" stroke="#797979" stroke-width="4" stroke-linecap="round" stroke-linejoin="round"/>
      <path d="M141.076,277.223 L148.491,288.926" fill="#FFEFD9"/>
      <path d="M141.076,277.223 L148.491,288.926" fill-opacity="0" stroke="#797979" stroke-width="4" stroke-linecap="round" stroke-linejoin="round"/>
      <path d="M129.687,288.844 L129.778,276.479" fill="#FFEFD9"/>
      <path d="M129.687,288.844 L129.778,276.479" fill-opacity="0" stroke="#797979" stroke-width="4" stroke-linecap="round" stroke-linejoin="round"/>
      <path d="M181.323,340.286 C181.323,340.286 186.321,328.568 188.278,317.598 C190.235,306.63 186.755,292.592 174.901,291.941 C166.7,291.488 163.528,301.532 162.801,309.799 C162.075,318.067 160.923,323.401 160.923,323.401 C160.923,323.401 155.676,337.174 157.868,346.387 C159.919,355.007 171.573,356.505 171.573,356.505 L202.544,348.42" fill="#FFEFD9"/>
      <path d="M181.323,340.286 C181.323,340.286 186.321,328.568 188.278,317.598 C190.235,306.63 186.755,292.592 174.901,291.941 C166.7,291.488 163.528,301.532 162.801,309.799 C162.075,318.067 160.923,323.401 160.923,323.401 C160.923,323.401 155.676,337.174 157.868,346.387 C159.919,355.007 171.573,356.505 171.573,356.505 L202.544,348.42" fill-opacity="0" stroke="#797979" stroke-width="4.291" stroke-linecap="round" stroke-linejoin="round"/>
      <path d="M172.876,292.059 C172.876,292.059 178.86,294.812 180.417,301.9 C181.747,307.956 182.139,309.819 182.139,309.819" fill="#FFEFD9"/>
      <path d="M172.876,292.059 C172.876,292.059 178.86,294.812 180.417,301.9 C181.747,307.956 182.139,309.819 182.139,309.819" fill-opacity="0" stroke="#797979" stroke-width="4" stroke-linecap="round" stroke-linejoin="round"/>
      <path d="M165.827,298.026 C165.827,298.026 169.708,300.481 171.477,305.765 C173.245,311.058 172.997,317.797 172.997,317.797" fill="#FFEFD9"/>
      <path d="M165.827,298.026 C165.827,298.026 169.708,300.481 171.477,305.765 C173.245,311.058 172.997,317.797 172.997,317.797" fill-opacity="0" stroke="#797979" stroke-width="4" stroke-linecap="round" stroke-linejoin="round"/>
      <path d="M104.515,343.881 C104.652,353.79 98.052,355.165 98.052,355.165 C90.12,356.638 82.132,341.294 82.132,341.294 C82.132,341.294 75.711,330.457 72.185,319.912 C68.659,309.369 69.612,295 80.335,292.619 C87.749,290.969 92.238,300.422 94.212,308.478 C96.185,316.535 98.083,321.632 98.083,321.632 C98.083,321.632 105.056,334.463 104.515,343.881" fill="#FFEFD9"/>
      <path d="M104.515,343.881 C104.652,353.79 98.052,355.165 98.052,355.165 C90.12,356.638 82.132,341.294 82.132,341.294 C82.132,341.294 75.711,330.457 72.185,319.912 C68.659,309.369 69.612,295 80.335,292.619 C87.749,290.969 92.238,300.422 94.212,308.478 C96.185,316.535 98.083,321.632 98.083,321.632 C98.083,321.632 105.056,334.463 104.515,343.881" fill-opacity="0" stroke="#797979" stroke-width="4.291" stroke-linecap="round" stroke-linejoin="round"/>
      <path d="M81.362,292.573 C81.362,292.573 76.334,296.169 76.036,303.394 C75.782,309.569 75.719,311.466 75.719,311.466" fill="#FFEFD9"/>
      <path d="M81.362,292.573 C81.362,292.573 76.334,296.169 76.036,303.394 C75.782,309.569 75.719,311.466 75.719,311.466" fill-opacity="0" stroke="#797979" stroke-width="4" stroke-linecap="round" stroke-linejoin="round"/>
      <path d="M88.743,297.431 C88.743,297.431 85.589,300.424 84.812,305.901 C84.036,311.386 85.331,318.003 85.331,318.003" fill="#FFEFD9"/>
      <path d="M88.743,297.431 C88.743,297.431 85.589,300.424 84.812,305.901 C84.036,311.386 85.331,318.003 85.331,318.003" fill-opacity="0" stroke="#797979" stroke-width="4" stroke-linecap="round" stroke-linejoin="round"/>
      <path d="M275.071,271.933 L269.175,249.551 L263.276,271.933 L269.175,294.317 z" fill="#FFE373"/>
      <path d="M269.175,264.387 L251.686,271.933 L269.175,279.485 L286.661,271.933 z" fill="#FFE373"/>
      <path d="M39.854,231.589 L33.956,209.207 L28.059,231.589 L33.956,253.972 z" fill="#FFE373"/>
      <path d="M33.956,224.043 L16.469,231.589 L33.956,239.14 L51.444,231.589 z" fill="#FFE373"/>
    </g>
  </g>
</svg>
