<?xml version="1.0" encoding="UTF-8" standalone="no"?>
<!--part of the category icon pack by sixsixfive released under CC0 (https://creativecommons.org/publicdomain/zero/1.0/) on openclipart-->
<svg xmlns="http://www.w3.org/2000/svg" xmlns:xlink="http://www.w3.org/1999/xlink" viewBox="0 0 32 32">
 <defs id="0">
  <linearGradient id="8">
   <stop id="I" stop-color="#931b03"/>
   <stop id="J" offset="1" stop-color="#d02604" stop-opacity="0.984"/>
  </linearGradient>
  <linearGradient id="9">
   <stop id="K" stop-color="#b8e4fd"/>
   <stop id="L" offset="1" stop-color="#eaf7ff"/>
  </linearGradient>
  <linearGradient id="A">
   <stop id="M" stop-color="#fff"/>
   <stop id="N" offset="1" stop-color="#fff" stop-opacity="0"/>
  </linearGradient>
  <linearGradient x1="31.02" y1="1021.04" x2="31.18" y2="1025.18" id="B" xlink:href="#A" gradientUnits="userSpaceOnUse" gradientTransform="translate(0,-1020.3622)"/>
  <linearGradient x1="31.02" y1="1051.78" x2="31.11" y2="1028.17" id="C" xlink:href="#A" gradientUnits="userSpaceOnUse" gradientTransform="translate(0,-1020.3622)"/>
  <radialGradient cx="12.914" cy="1049.65" r="16" id="D" xlink:href="#9" gradientUnits="userSpaceOnUse" gradientTransform="matrix(1.4329786,-1.4036705,1.3587115,1.387081,-1430.5122,-1405.3484)"/>
  <mask id="E">
   <rect width="32" height="32" rx="5" id="O" fill="#fff"/>
  </mask>
  <mask id="F">
   <rect width="32" height="32" rx="5" id="P" fill="#fff"/>
  </mask>
  <mask id="G">
   <rect width="32" height="32" rx="5" id="Q" fill="#fff"/>
  </mask>
  <radialGradient cx="9.923" cy="29.333" r="14.359" id="H" xlink:href="#8" gradientUnits="userSpaceOnUse" gradientTransform="matrix(1.4138537,-1.1128374,0.76383798,0.97045198,-28.842936,12.095381)"/>
 </defs>
 <rect width="32" height="32" rx="5" id="1" fill="url(#D)"/>
 <path d="m 5,1.4816 c -1.9834933,0 -3.53125,1.5477 -3.53125,3.5312 l 0,22 c 0,1.9835 1.5477567,3.5312 3.53125,3.5312 l 22,0 c 1.983493,0 3.53125,-1.5477 3.53125,-3.5312 l 0,-22 C 30.53125,3.0293 28.983493,1.4815 27,1.4816 l -22,0 z" id="2" opacity="0.7" fill="none" stroke="url(#B)"/>
 <path d="m 7.75,-4 0,11.75 -11.75,0 0,1 11.75,0 0,6.75 -11.75,0 0,1 11.75,0 0,6.75 -11.75,0 0,1 11.75,0 0,11.75 1,0 0,-11.75 6.75,0 0,11.75 1,0 0,-11.75 6.75,0 0,11.75 1,0 0,-11.75 11.75,0 0,-1 -11.75,0 0,-6.75 11.75,0 0,-1 -11.75,0 0,-6.75 11.75,0 0,-1 -11.75,0 0,-11.75 -1,0 0,11.75 -6.75,0 0,-11.75 -1,0 0,11.75 -6.75,0 0,-11.75 -1,0 z m 1,12.75 6.75,0 0,6.75 -6.75,0 0,-6.75 z m 7.75,0 6.75,0 0,6.75 -6.75,0 0,-6.75 z m -7.75,7.75 6.75,0 0,6.75 -6.75,0 0,-6.75 z m 7.75,0 6.75,0 0,6.75 -6.75,0 0,-6.75 z" mask="url(#E)" id="3" opacity="0.06" fill="#171717"/>
 <path d="m 28.8125,11.15675 -0.40625,0.1875 -3.5625,1.78125 -0.375,0.21875 0.34375,0.21875 0.84375,0.5625 -3.59375,5.46875 -5.78125,-1.5625 L 15.5,17.813 15.125,18.5005 11.4375,25.313 7.34375,18.938 6.375,17.438 l -0.78125,1.625 -5.5,11.75 1.8125,0.875 4.71875,-10.125 4.03125,6.21875 0.90625,1.4375 0.8125,-1.5 4.125,-7.5625 5.75,1.5625 0.6875,0.1875 0.40625,-0.625 3.96875,-6.0625 0.84375,0.53125 0.375,0.25 0.03125,-0.4375 0.21875,-4 0.03125,-0.40625 z" mask="url(#F)" id="4" opacity="0.16" color="#000" stroke-width="2"/>
 <path d="m 28.8125,10.15625 -0.40625,0.1875 -3.5625,1.78125 -0.375,0.21875 0.34375,0.21875 0.84375,0.5625 -3.59375,5.46875 -5.78125,-1.5625 L 15.5,16.8125 15.125,17.5 l -3.6875,6.8125 -4.09375,-6.375 -0.96875,-1.5 -0.78125,1.625 -5.5,11.75 1.8125,0.875 4.71875,-10.125 4.03125,6.21875 0.90625,1.4375 0.8125,-1.5 4.125,-7.5625 5.75,1.5625 0.6875,0.1875 0.40625,-0.625 3.96875,-6.0625 0.84375,0.53125 0.375,0.25 0.03125,-0.4375 0.21875,-4 0.03125,-0.40625 z" mask="url(#G)" id="5" color="#000" stroke-width="2" fill="url(#H)"/>
 <path d="m 5,0.4816 c -2.5134381,0 -4.53125,2.0178 -4.53125,4.5312 l 0,22 c 0,2.5134 2.0178119,4.5312 4.53125,4.5312 l 22,0 c 2.513438,0 4.53125,-2.0178 4.53125,-4.5312 l 0,-22 C 31.53125,2.4994 29.513438,0.4816 27,0.4816 l -22,0 z" id="6" opacity="0.3" fill="none" stroke="#000"/>
 <path d="m 5,1.4816 c -1.9834933,0 -3.53125,1.5477 -3.53125,3.5312 l 0,22 c 0,1.9835 1.5477567,3.5312 3.53125,3.5312 l 22,0 c 1.983493,0 3.53125,-1.5477 3.53125,-3.5312 l 0,-22 C 30.53125,3.0293 28.983493,1.4815 27,1.4816 l -22,0 z" id="7" opacity="0.4" fill="none" stroke="url(#C)"/>
</svg>
