<?xml version="1.0" encoding="utf-8"?>
<!-- Svg Vector Icons : http://www.onlinewebfonts.com/icon -->
<!DOCTYPE svg PUBLIC "-//W3C//DTD SVG 1.1//EN" "http://www.w3.org/Graphics/SVG/1.1/DTD/svg11.dtd">
<svg version="1.1" xmlns="http://www.w3.org/2000/svg" xmlns:xlink="http://www.w3.org/1999/xlink" x="0px" y="0px" viewBox="0 0 1000 1000" enable-background="new 0 0 1000 1000" xml:space="preserve">
<metadata> Svg Vector Icons : http://www.onlinewebfonts.com/icon </metadata>
<g><g transform="translate(0.000000,511.000000) scale(0.100000,-0.100000)"><path d="M4738.5,4998.6c-664.8-106.8-1307.8-524.3-1909.3-1244.5c-981.4-1177.3-1717.4-3005.4-1778.7-4430c-21.8-465,53.4-993.3,199.8-1442.4c85.1-259.2,308.7-747.9,377.9-831c21.8-23.8,93-120.7,160.3-217.6c556-791.4,1408.7-1345.4,2364.4-1537.4c1133.7-227.5,2229.9,0,3167.7,660.8c243.4,172.2,716.2,647,892.4,896.3c73.2,104.8,140.5,191.9,148.4,191.9c7.9,0,83.1,140.5,166.2,312.6c255.2,522.4,362.1,914.1,413.5,1513.6c102.9,1183.2-451.1,2959.9-1339.5,4297.5C6942.6,4161.7,6204.6,4777,5450.8,4959C5262.8,5004.5,4904.7,5024.3,4738.5,4998.6z M5444.9,4642.5c449.1-120.7,955.6-465,1365.2-927.9c279-312.6,271.1-288.9,91-288.9c-132.5,0-164.2-7.9-275-67.3c-140.5-77.2-217.6-156.3-294.8-304.7c-77.1-146.4-77.1-356.1,0-502.6c77.2-148.4,154.3-227.5,294.8-304.7c110.8-59.4,140.5-67.3,273-65.3c162.2,0,290.9,51.4,421.4,164.2c73.2,65.3,172.1,233.5,191.9,326.5c11.9,61.3,11.9,59.4,93-77.2c112.8-195.9,342.3-656.9,342.3-690.5c0-41.6-516.4-292.8-771.6-375.9c-391.8-126.6-803.3-211.7-1335.5-273.1c-290.8-33.6-1394.9-33.6-1681.8,0c-799.3,93-1313.8,229.5-1826.2,480.8c-195.9,96.9-281,148.4-281,172.1c2,47.5,381.9,781.5,411.5,791.4c11.9,4,23.7-7.9,23.7-23.7c0-49.5,91-219.6,158.3-294.8c31.7-37.6,114.8-97,182-134.6c110.8-57.4,142.5-65.3,273-65.3c122.7,0,166.2,9.9,251.3,53.4c148.4,77.2,227.5,154.3,304.7,294.8c57.4,110.8,65.3,142.5,65.3,273c0,130.6-7.9,162.2-65.3,273c-77.2,140.5-156.3,217.6-304.7,294.8c-85.1,45.5-128.6,55.4-253.3,55.4h-152.3l35.6,49.5c104.9,144.4,415.5,468.9,587.6,611.4c397.7,332.4,724.2,504.5,1113.9,587.6C4867.1,4711.7,5243,4697.9,5444.9,4642.5z M3294.1,3067.5c87.1-65.3,126.6-160.3,116.7-290.8c-11.9-197.9-130.6-298.8-336.4-284.9c-197.9,11.9-298.8,130.6-284.9,336.4c7.9,130.6,51.4,203.8,154.3,257.2C3033,3132.8,3217,3122.9,3294.1,3067.5z M7093,3067.5c87.1-65.3,126.6-160.3,116.7-290.8c-11.9-197.9-130.6-298.8-336.3-284.9c-197.9,11.9-298.8,130.6-284.9,336.4c7.9,130.6,51.4,203.8,154.3,257.2C6831.8,3132.8,7015.9,3122.9,7093,3067.5z M2160.4,1474.8c522.3-267.1,1151.5-435.3,1954.8-526.3c415.5-45.5,1353.4-45.5,1768.9,0c785.5,89,1400.8,251.3,1925.1,510.5c146.4,73.2,273,126.6,281,120.7c7.9-7.9,57.4-134.6,112.8-282.9C8444.4,639.8,8616.5-125.9,8626.4-581l4-166.2l-178.1-75.2c-453.1-188-1169.3-393.7-1753-498.6c-603.5-110.8-941.8-138.5-1699.6-138.5c-605.4,0-753.8,5.9-1066.5,45.5c-852.8,102.9-1596.7,282.9-2303.1,560C1489.7-798.6,1371-741.2,1365-725.4c-15.8,39.6,23.8,431.3,65.3,678.6c91,528.3,435.3,1666,498.6,1638.3C1936.9,1587.5,2041.7,1536.1,2160.4,1474.8z M1642-1192.3c761.8-284.9,1569-465,2526.6-559.9c318.5-31.7,1343.5-31.7,1662,0c957.6,95,1764.9,275,2526.6,559.9c142.5,53.4,265.1,96.9,269.1,96.9c17.8,0-31.7-379.9-79.1-593.6c-29.7-138.5-39.6-154.3-144.4-251.3c-184-170.1-273-415.5-221.6-603.5c19.8-69.3,13.9-85.1-71.2-227.5c-641.1-1064.5-1816.3-1707.5-3120.2-1707.5c-1319.7,0-2481.1,635.1-3104.4,1697.6c-85.1,146.4-89,156.3-69.2,241.4c47.5,203.8-39.6,435.3-221.6,601.5l-112.8,100.9l-41.6,197.9c-21.8,108.8-45.5,255.2-51.4,326.5c-5.9,71.2-15.8,148.4-21.8,174.1c-4,23.7-4,43.5,4,43.5C1376.9-1095.4,1499.6-1138.9,1642-1192.3z"/><path d="M4135,3253.5c-106.8-51.4-102.9-215.7,5.9-267.1c130.6-63.3,261.2,59.4,205.8,193.9C4311.1,3265.4,4224.1,3297,4135,3253.5z"/><path d="M5717.9,3253.5c-106.8-51.4-102.9-215.7,5.9-267.1c130.6-63.3,261.2,59.4,205.8,193.9C5894,3265.4,5806.9,3297,5717.9,3253.5z"/><path d="M4837.4,3093.2c-197.9-75.2-310.6-174.1-407.6-358.1c-43.5-83.1-53.4-126.6-53.4-249.3c0-132.6,7.9-162.2,67.3-273c77.2-140.5,156.3-217.6,304.7-294.8c146.4-77.2,354.2-77.2,502.6,0c148.4,77.2,227.5,154.3,304.7,294.8c57.4,108.8,65.3,142.5,65.3,273c2,124.6-7.9,166.2-53.4,251.3c-77.2,148.4-154.3,227.5-292.8,302.7C5132.3,3115,4956.2,3136.8,4837.4,3093.2z M5193.6,2750.9c87.1-65.3,126.6-160.3,116.7-290.8c-11.9-197.9-130.6-298.8-336.4-284.9c-197.9,11.9-298.8,130.6-284.9,336.4c7.9,130.6,51.5,203.8,154.3,257.2C4932.4,2816.2,5116.4,2806.3,5193.6,2750.9z"/><path d="M3818.5,2145.5c-106.8-51.4-102.9-215.7,5.9-267.1c130.6-63.3,261.2,59.4,205.8,193.9C3994.6,2157.4,3907.5,2189,3818.5,2145.5z"/><path d="M6030.5,2143.5c-106.8-53.4-95-225.6,19.8-271.1c176.1-73.2,298.8,195.9,124.7,275C6113.6,2175.2,6089.9,2175.2,6030.5,2143.5z"/><path d="M2231.7-1971.9c-106.8-53.4-95-225.6,19.8-271.1c176.1-73.2,298.8,195.9,124.6,275C2314.8-1940.2,2291-1940.2,2231.7-1971.9z"/><path d="M7617.3-1969.9c-106.8-51.4-102.9-215.7,5.9-267.1c130.6-63.3,261.2,59.4,205.8,193.9C7793.4-1958.1,7706.4-1926.4,7617.3-1969.9z"/><path d="M2922.2-2136.1C2639.2-2239,2445.3-2520,2473-2789.1c13.9-128.6,110.8-322.5,205.8-403.6c132.6-116.7,257.2-166.2,421.4-166.2c122.7,0,166.2,9.9,251.3,53.5c148.4,77.2,227.5,154.3,304.7,294.8c57.4,110.8,65.3,142.4,65.3,273c0,164.2-49.5,290.9-166.2,421.4C3408.9-2148,3116.1-2064.9,2922.2-2136.1z M3294.1-2472.5c87.1-65.3,126.6-160.3,116.7-290.8c-11.9-197.9-130.6-298.8-336.4-284.9c-197.9,11.9-298.8,130.6-284.9,336.4c7.9,130.6,51.4,203.8,154.3,257.2C3033-2407.2,3217-2417.1,3294.1-2472.5z"/><path d="M6736.9-2130.2c-197.9-75.2-310.6-174.1-407.6-358.1c-43.5-83.1-53.4-126.6-53.4-249.3c0-132.5,7.9-162.2,67.3-273c77.1-140.5,156.3-217.6,304.7-294.8c146.4-77.2,354.2-77.2,502.6,0c148.4,77.2,227.5,154.3,304.7,294.8c57.4,108.8,65.3,142.4,65.3,273c2,124.7-7.9,166.2-53.4,251.3c-77.2,148.4-154.3,227.5-292.8,302.7C7031.7-2108.4,6855.6-2086.7,6736.9-2130.2z M7093-2472.5c87.1-65.3,126.6-160.3,116.7-290.8c-11.9-197.9-130.6-298.8-336.3-284.9c-197.9,11.9-298.8,130.6-284.9,336.4c7.9,130.6,51.4,203.8,154.3,257.2C6831.8-2407.2,7015.9-2417.1,7093-2472.5z"/><path d="M4135-2286.5c-106.8-51.4-102.9-215.7,5.9-267.1c130.6-63.3,261.2,59.4,205.8,193.9C4311.1-2274.6,4224.1-2243,4135-2286.5z"/><path d="M5717.9-2286.5c-106.8-51.4-102.9-215.7,5.9-267.1c130.6-63.3,261.2,59.4,205.8,193.9C5894-2274.6,5806.9-2243,5717.9-2286.5z"/><path d="M4837.4-2446.7c-197.9-75.2-310.6-174.1-407.6-358.2c-43.5-83.1-53.4-126.6-53.4-249.3c0-132.5,7.9-162.2,67.3-273c77.2-140.5,156.3-217.6,304.7-294.8c146.4-77.2,354.2-77.2,502.6,0c148.4,77.2,227.5,154.3,304.7,294.8c57.4,108.8,65.3,142.5,65.3,273c2,124.7-7.9,166.2-53.4,251.3c-77.2,148.4-154.3,227.5-292.8,302.7C5132.3-2425,4956.2-2403.2,4837.4-2446.7z M5193.6-2789.1c87.1-65.3,126.6-160.3,116.7-290.8c-11.9-197.9-130.6-298.8-336.4-284.9c-197.9,11.9-298.8,130.6-284.9,336.4c7.9,130.6,51.5,203.8,154.3,257.2C4932.4-2723.7,5116.4-2733.6,5193.6-2789.1z"/><path d="M3818.5-3394.5c-106.8-51.4-102.9-215.7,5.9-267.1c130.6-63.3,261.2,59.4,205.8,193.9C3994.6-3382.6,3907.5-3351,3818.5-3394.5z"/><path d="M6030.5-3396.5c-106.8-53.4-95-225.6,19.8-271.1c176.1-73.2,298.8,195.9,124.7,275C6113.6-3364.8,6089.9-3364.8,6030.5-3396.5z"/></g></g>
</svg>